<svg width="162" height="33" viewBox="0 0 162 33" fill="none" xmlns="http://www.w3.org/2000/svg">
<path d="M13.388 32.308C9.66267 32.308 6.58267 31.4427 4.148 29.712C1.74267 27.952 0.437333 25.3853 0.232 22.012H10.616C10.7627 23.8013 11.5547 24.696 12.992 24.696C13.52 24.696 13.96 24.5787 14.312 24.344C14.6933 24.08 14.884 23.684 14.884 23.156C14.884 22.4227 14.488 21.836 13.696 21.396C12.904 20.9267 11.672 20.3987 10 19.812C8.00533 19.108 6.348 18.4187 5.028 17.744C3.73733 17.0693 2.62267 16.0867 1.684 14.796C0.745333 13.5053 0.290667 11.848 0.32 9.824C0.32 7.8 0.833333 6.084 1.86 4.676C2.916 3.23867 4.33867 2.15333 6.128 1.42C7.94667 0.686665 9.98533 0.319999 12.244 0.319999C16.0573 0.319999 19.0787 1.2 21.308 2.96C23.5667 4.72 24.7547 7.19867 24.872 10.396H14.356C14.3267 9.516 14.1067 8.88533 13.696 8.504C13.2853 8.12266 12.7867 7.932 12.2 7.932C11.7893 7.932 11.452 8.07867 11.188 8.372C10.924 8.636 10.792 9.01733 10.792 9.516C10.792 10.22 11.1733 10.8067 11.936 11.276C12.728 11.716 13.9747 12.2587 15.676 12.904C17.6413 13.6373 19.2547 14.3413 20.516 15.016C21.8067 15.6907 22.9213 16.6293 23.86 17.832C24.7987 19.0347 25.268 20.5453 25.268 22.364C25.268 24.2707 24.7987 25.9867 23.86 27.512C22.9213 29.008 21.5573 30.1813 19.768 31.032C17.9787 31.8827 15.852 32.308 13.388 32.308ZM52.724 19.372C52.724 20.0467 52.68 20.692 52.592 21.308H36.884C37.0307 23.4493 37.9253 24.52 39.568 24.52C40.624 24.52 41.3867 24.036 41.856 23.068H52.196C51.844 24.828 51.096 26.412 49.952 27.82C48.8373 29.1987 47.4147 30.2987 45.684 31.12C43.9827 31.912 42.1053 32.308 40.052 32.308C37.588 32.308 35.388 31.7947 33.452 30.768C31.5453 29.7413 30.0493 28.2747 28.964 26.368C27.908 24.432 27.38 22.1733 27.38 19.592C27.38 17.0107 27.908 14.7667 28.964 12.86C30.0493 10.924 31.5453 9.44267 33.452 8.416C35.388 7.38933 37.588 6.876 40.052 6.876C42.516 6.876 44.7013 7.38933 46.608 8.416C48.544 9.41333 50.04 10.8507 51.096 12.728C52.1813 14.6053 52.724 16.82 52.724 19.372ZM42.824 17.04C42.824 16.2187 42.56 15.6027 42.032 15.192C41.504 14.752 40.844 14.532 40.052 14.532C38.3213 14.532 37.3093 15.368 37.016 17.04H42.824ZM54.4933 19.592C54.4933 16.9813 54.9333 14.7227 55.8133 12.816C56.7226 10.88 57.9546 9.41333 59.5093 8.416C61.0639 7.38933 62.8093 6.876 64.7453 6.876C66.3586 6.876 67.7519 7.21333 68.9253 7.888C70.0986 8.53333 70.9933 9.428 71.6093 10.572V7.184H81.3333V32H71.6093V28.612C70.9933 29.756 70.0986 30.6653 68.9253 31.34C67.7519 31.9853 66.3586 32.308 64.7453 32.308C62.8093 32.308 61.0639 31.8093 59.5093 30.812C57.9546 29.7853 56.7226 28.3187 55.8133 26.412C54.9333 24.476 54.4933 22.2027 54.4933 19.592ZM71.6093 19.592C71.6093 18.272 71.2719 17.2453 70.5973 16.512C69.9226 15.7787 69.0573 15.412 68.0013 15.412C66.9453 15.412 66.0799 15.7787 65.4053 16.512C64.7306 17.2453 64.3933 18.272 64.3933 19.592C64.3933 20.912 64.7306 21.9387 65.4053 22.672C66.0799 23.4053 66.9453 23.772 68.0013 23.772C69.0573 23.772 69.9226 23.4053 70.5973 22.672C71.2719 21.9387 71.6093 20.912 71.6093 19.592ZM101.164 23.684V32H97.4675C90.6622 32 87.2595 28.612 87.2595 21.836V15.324H84.1795V7.184H87.2595V1.2H97.0275V7.184H101.076V15.324H97.0275V22.012C97.0275 22.5987 97.1595 23.024 97.4235 23.288C97.7169 23.552 98.1862 23.684 98.8315 23.684H101.164ZM135.332 7.36C137.238 7.36 138.94 7.756 140.436 8.548C141.961 9.34 143.149 10.5133 144 12.068C144.88 13.6227 145.32 15.5 145.32 17.7V32H140.348V18.448C140.348 16.2773 139.805 14.62 138.72 13.476C137.634 12.3027 136.153 11.716 134.276 11.716C132.398 11.716 130.902 12.3027 129.788 13.476C128.702 14.62 128.16 16.2773 128.16 18.448V32H123.188V18.448C123.188 16.2773 122.645 14.62 121.56 13.476C120.474 12.3027 118.993 11.716 117.116 11.716C115.238 11.716 113.742 12.3027 112.628 13.476C111.542 14.62 111 16.2773 111 18.448V32H105.984V7.756H111V10.528C111.821 9.53067 112.862 8.75333 114.124 8.196C115.385 7.63867 116.734 7.36 118.172 7.36C120.108 7.36 121.838 7.77067 123.364 8.592C124.889 9.41333 126.062 10.6013 126.884 12.156C127.617 10.6893 128.761 9.53066 130.316 8.68C131.87 7.8 133.542 7.36 135.332 7.36ZM155.442 32.352C153.741 32.352 152.377 31.8973 151.35 30.988C150.324 30.0787 149.81 28.9347 149.81 27.556C149.81 26.148 150.324 24.9893 151.35 24.08C152.377 23.1413 153.741 22.672 155.442 22.672C157.114 22.672 158.464 23.1413 159.49 24.08C160.517 24.9893 161.03 26.148 161.03 27.556C161.03 28.9347 160.517 30.0787 159.49 30.988C158.464 31.8973 157.114 32.352 155.442 32.352Z" fill="#183A35"/>
</svg>
